<svg id="Слой_2" data-name="Слой 2" xmlns="http://www.w3.org/2000/svg" viewBox="0 0 170.23 32.96"><defs><style>.cls-1{fill:#fff;stroke:#fff;stroke-linecap:round;stroke-linejoin:round;stroke-width:4px;}.cls-2{fill:#b52959;}.cls-3{fill:#db6d9e;}.cls-4{fill:#9c244c;}</style></defs><rect class="cls-1" x="2" y="2" width="5.26" height="28.96"/><path class="cls-1" d="M59.54,511.67a7.89,7.89,0,1,0,0,11.76v2h5.27v-15.8H59.54ZM62,515.89a7.85,7.85,0,0,0-1.34-3A7.85,7.85,0,0,1,62,515.89Z" transform="translate(-36.59 -494.49)"/><path class="cls-1" d="M86.22,509.65a7.86,7.86,0,0,0-5.26,2,7.89,7.89,0,0,0-7.9-1.57v-.45H67.8v15.8h5.26v-7.9a2.64,2.64,0,0,1,5.27,0v7.9h5.26v-7.9a2.64,2.64,0,0,1,5.27,0v7.9h5.26v-7.9A7.9,7.9,0,0,0,86.22,509.65Z" transform="translate(-36.59 -494.49)"/><polygon class="cls-1" points="60.14 15.16 60.14 30.96 65.4 30.96 65.4 15.16 65.4 9.9 60.14 9.9 60.14 15.16"/><path class="cls-1" d="M117.37,511.67a7.9,7.9,0,1,0,0,11.76v2h5.26v-15.8h-5.26Zm2.45,4.22a7.83,7.83,0,0,0-1.33-3A7.83,7.83,0,0,1,119.82,515.89Z" transform="translate(-36.59 -494.49)"/><path class="cls-1" d="M136.8,512A7.89,7.89,0,0,0,148,523.13l-5.59-5.58L148,512A7.89,7.89,0,0,0,136.8,512Z" transform="translate(-36.59 -494.49)"/><path class="cls-1" d="M157.86,509.65h0a7.86,7.86,0,0,0-2.63.45V496.49H150v29h5.27v-7.9a2.63,2.63,0,1,1,5.26,0v7.9h5.27v-7.9A7.9,7.9,0,0,0,157.86,509.65Z" transform="translate(-36.59 -494.49)"/><path class="cls-1" d="M180.77,511.67a7.89,7.89,0,1,0,0,11.76v2H186v-15.8h-5.27Zm2.46,4.22a7.85,7.85,0,0,0-1.34-3A7.85,7.85,0,0,1,183.23,515.89Z" transform="translate(-36.59 -494.49)"/><path class="cls-1" d="M201.48,511.1a7.91,7.91,0,0,0-7.19-1v-.45H189v15.8h5.27v-7.9a2.63,2.63,0,0,1,5.26,0v7.9h5.27v-7.9A7.92,7.92,0,0,0,201.48,511.1Z" transform="translate(-36.59 -494.49)"/><rect class="cls-2" x="2" y="2" width="5.26" height="28.96"/><path class="cls-3" d="M64.81,509.65v15.8H59.54v-2a7.87,7.87,0,0,0,0-11.76v-2Z" transform="translate(-36.59 -494.49)"/><path class="cls-4" d="M59.54,511.67a7.87,7.87,0,0,1,0,11.76Z" transform="translate(-36.59 -494.49)"/><path class="cls-2" d="M59.54,511.67v11.76a7.89,7.89,0,1,1,0-11.76Z" transform="translate(-36.59 -494.49)"/><rect class="cls-4" x="52.26" y="23.06" width="5.26" height="7.9"/><path class="cls-2" d="M86.22,509.65a7.9,7.9,0,0,1,7.9,7.9H88.86a2.64,2.64,0,0,0-5.27,0A7.85,7.85,0,0,0,81,511.67a7.86,7.86,0,0,1,5.26-2Z" transform="translate(-36.59 -494.49)"/><rect class="cls-3" x="41.73" y="23.06" width="5.26" height="7.9"/><path class="cls-4" d="M81,511.67a7.85,7.85,0,0,1,2.63,5.88H78.33A7.81,7.81,0,0,1,81,511.67Z" transform="translate(-36.59 -494.49)"/><path class="cls-3" d="M81,511.67a7.81,7.81,0,0,0-2.63,5.88,2.64,2.64,0,0,0-5.27,0V510.1A7.89,7.89,0,0,1,81,511.67Z" transform="translate(-36.59 -494.49)"/><rect class="cls-2" x="31.2" y="23.06" width="5.26" height="7.9"/><path class="cls-4" d="M73.06,510.1v7.45H67.8A7.91,7.91,0,0,1,73.06,510.1Z" transform="translate(-36.59 -494.49)"/><path class="cls-2" d="M73.06,509.65v.45a7.91,7.91,0,0,0-5.26,7.45v-7.9Z" transform="translate(-36.59 -494.49)"/><rect class="cls-3" x="60.14" y="15.16" width="5.26" height="15.79"/><rect class="cls-4" x="60.14" y="9.9" width="5.26" height="5.26"/><path class="cls-3" d="M122.63,509.65v15.8h-5.26v-2a7.89,7.89,0,0,0,0-11.76v-2Z" transform="translate(-36.59 -494.49)"/><path class="cls-4" d="M117.37,511.67a7.89,7.89,0,0,1,0,11.76Z" transform="translate(-36.59 -494.49)"/><path class="cls-2" d="M117.37,511.67v11.76a7.9,7.9,0,1,1,0-11.76Z" transform="translate(-36.59 -494.49)"/><path class="cls-3" d="M148,512l-5.59,5.58L136.8,512A7.89,7.89,0,0,1,148,512Z" transform="translate(-36.59 -494.49)"/><path class="cls-2" d="M142.38,517.55l5.59,5.58a7.89,7.89,0,0,1-11.17,0Z" transform="translate(-36.59 -494.49)"/><path class="cls-4" d="M142.38,517.55l-5.58,5.58a7.87,7.87,0,0,1,0-11.16Z" transform="translate(-36.59 -494.49)"/><rect class="cls-4" x="123.9" y="23.06" width="5.26" height="7.9"/><path class="cls-2" d="M157.86,509.65a7.9,7.9,0,0,1,7.9,7.9h-5.27a2.63,2.63,0,1,0-5.26,0V510.1a7.86,7.86,0,0,1,2.63-.45Z" transform="translate(-36.59 -494.49)"/><rect class="cls-3" x="113.37" y="23.06" width="5.26" height="7.9"/><path class="cls-4" d="M155.23,510.1v7.45H150A7.92,7.92,0,0,1,155.23,510.1Z" transform="translate(-36.59 -494.49)"/><path class="cls-3" d="M155.23,496.49V510.1a7.92,7.92,0,0,0-5.27,7.45V496.49Z" transform="translate(-36.59 -494.49)"/><path class="cls-3" d="M186,509.65v15.8h-5.27v-2a7.89,7.89,0,0,0,0-11.76v-2Z" transform="translate(-36.59 -494.49)"/><path class="cls-4" d="M180.77,511.67a7.89,7.89,0,0,1,0,11.76Z" transform="translate(-36.59 -494.49)"/><path class="cls-2" d="M180.77,511.67v11.76a7.89,7.89,0,1,1,0-11.76Z" transform="translate(-36.59 -494.49)"/><rect class="cls-4" x="162.96" y="23.06" width="5.26" height="7.9"/><path class="cls-3" d="M204.82,517.55h-5.27a2.63,2.63,0,0,0-5.26,0V510.1a7.9,7.9,0,0,1,10.53,7.45Z" transform="translate(-36.59 -494.49)"/><rect class="cls-2" x="152.43" y="23.06" width="5.26" height="7.9"/><path class="cls-4" d="M194.29,514.92v2.63H189a7.9,7.9,0,0,1,5.27-7.45Z" transform="translate(-36.59 -494.49)"/><path class="cls-2" d="M194.29,509.65v.45a7.9,7.9,0,0,0-5.27,7.45v-7.9Z" transform="translate(-36.59 -494.49)"/></svg>