<svg id="Слой_2" data-name="Слой 2" xmlns="http://www.w3.org/2000/svg" viewBox="0 0 170.23 32.96"><defs><style>.cls-1{fill:#fff;stroke:#fff;stroke-linejoin:round;stroke-width:4px;}.cls-2{fill:#3c3c3b;}.cls-3{fill:#1d1d1b;}.cls-4{fill:#706f6f;}</style></defs><rect class="cls-1" x="2" y="2" width="5.26" height="28.96"/><path class="cls-1" d="M60.05,475.59a7.89,7.89,0,1,0,0,11.76v2h5.27v-15.8H60.05Zm2.46,4.22a7.85,7.85,0,0,0-1.34-3A7.85,7.85,0,0,1,62.51,479.81Z" transform="translate(-37.1 -458.41)"/><path class="cls-1" d="M86.73,473.57a7.86,7.86,0,0,0-5.26,2,7.89,7.89,0,0,0-7.9-1.57v-.45H68.31v15.8h5.26v-7.9a2.64,2.64,0,0,1,5.27,0v7.9H84.1v-7.9a2.64,2.64,0,0,1,5.27,0v7.9h5.26v-7.9A7.9,7.9,0,0,0,86.73,473.57Z" transform="translate(-37.1 -458.41)"/><polygon class="cls-1" points="60.14 15.16 60.14 30.96 65.4 30.96 65.4 15.16 65.4 9.9 60.14 9.9 60.14 15.16"/><path class="cls-1" d="M117.88,475.59a7.9,7.9,0,1,0,0,11.76v2h5.26v-15.8h-5.26Zm2.45,4.22a7.83,7.83,0,0,0-1.33-3A7.83,7.83,0,0,1,120.33,479.81Z" transform="translate(-37.1 -458.41)"/><path class="cls-1" d="M137.31,475.89a7.89,7.89,0,1,0,11.17,11.16l-5.59-5.58,5.59-5.58A7.89,7.89,0,0,0,137.31,475.89Z" transform="translate(-37.1 -458.41)"/><path class="cls-1" d="M158.37,473.57h0a7.9,7.9,0,0,0-2.63.45V460.41h-5.26v29h5.26v-7.9a2.63,2.63,0,1,1,5.26,0v7.9h5.27v-7.9A7.9,7.9,0,0,0,158.37,473.57Z" transform="translate(-37.1 -458.41)"/><path class="cls-1" d="M181.28,475.59a7.89,7.89,0,1,0,0,11.76v2h5.27v-15.8h-5.27Zm2.46,4.22a7.85,7.85,0,0,0-1.34-3A7.85,7.85,0,0,1,183.74,479.81Z" transform="translate(-37.1 -458.41)"/><path class="cls-1" d="M202,475a7.91,7.91,0,0,0-7.19-1v-.45h-5.27v15.8h5.27v-7.9a2.63,2.63,0,1,1,5.26,0v7.9h5.27v-7.9A7.92,7.92,0,0,0,202,475Z" transform="translate(-37.1 -458.41)"/><rect class="cls-2" x="2" y="2" width="5.26" height="28.96"/><path class="cls-3" d="M65.32,473.57v15.8H60.06v-2a7.89,7.89,0,0,0,0-11.76v-2Z" transform="translate(-37.1 -458.41)"/><path class="cls-2" d="M60.06,475.59a7.89,7.89,0,0,1,0,11.76Z" transform="translate(-37.1 -458.41)"/><path class="cls-4" d="M60.06,475.59v11.76a7.9,7.9,0,1,1,0-11.76Z" transform="translate(-37.1 -458.41)"/><rect class="cls-2" x="52.27" y="23.06" width="5.26" height="7.9"/><path class="cls-4" d="M86.74,473.57a7.9,7.9,0,0,1,7.89,7.9H89.37a2.64,2.64,0,0,0-5.27,0,7.81,7.81,0,0,0-2.63-5.88,7.88,7.88,0,0,1,5.27-2Z" transform="translate(-37.1 -458.41)"/><rect class="cls-3" x="41.74" y="23.06" width="5.26" height="7.9"/><path class="cls-2" d="M81.47,475.59a7.81,7.81,0,0,1,2.63,5.88H78.84A7.85,7.85,0,0,1,81.47,475.59Z" transform="translate(-37.1 -458.41)"/><path class="cls-3" d="M81.47,475.59a7.85,7.85,0,0,0-2.63,5.88,2.64,2.64,0,0,0-5.27,0V474A7.89,7.89,0,0,1,81.47,475.59Z" transform="translate(-37.1 -458.41)"/><rect class="cls-4" x="31.21" y="23.06" width="5.26" height="7.9"/><path class="cls-2" d="M73.57,474v7.45H68.31A7.91,7.91,0,0,1,73.57,474Z" transform="translate(-37.1 -458.41)"/><path class="cls-4" d="M73.57,473.57V474a7.91,7.91,0,0,0-5.26,7.45v-7.9Z" transform="translate(-37.1 -458.41)"/><rect class="cls-3" x="60.14" y="15.16" width="5.26" height="15.79"/><rect class="cls-2" x="60.14" y="9.9" width="5.26" height="5.26"/><path class="cls-3" d="M123.15,473.57v15.8h-5.27v-2a7.89,7.89,0,0,0,0-11.76v-2Z" transform="translate(-37.1 -458.41)"/><path class="cls-2" d="M117.88,475.59a7.89,7.89,0,0,1,0,11.76Z" transform="translate(-37.1 -458.41)"/><path class="cls-4" d="M117.88,475.59v11.76a7.89,7.89,0,1,1,0-11.76Z" transform="translate(-37.1 -458.41)"/><path class="cls-3" d="M148.48,475.89l-5.58,5.58-5.59-5.58A7.89,7.89,0,0,1,148.48,475.89Z" transform="translate(-37.1 -458.41)"/><path class="cls-4" d="M142.9,481.47l5.58,5.58a7.89,7.89,0,0,1-11.17,0Z" transform="translate(-37.1 -458.41)"/><path class="cls-2" d="M142.9,481.47l-5.59,5.58a7.89,7.89,0,0,1,0-11.16Z" transform="translate(-37.1 -458.41)"/><rect class="cls-2" x="123.91" y="23.06" width="5.26" height="7.9"/><path class="cls-4" d="M158.38,473.57a7.9,7.9,0,0,1,7.89,7.9H161a2.64,2.64,0,0,0-5.27,0V474a7.92,7.92,0,0,1,2.64-.45Z" transform="translate(-37.1 -458.41)"/><rect class="cls-3" x="113.38" y="23.06" width="5.26" height="7.9"/><path class="cls-2" d="M155.74,474v7.45h-5.26A7.91,7.91,0,0,1,155.74,474Z" transform="translate(-37.1 -458.41)"/><path class="cls-3" d="M155.74,460.41V474a7.91,7.91,0,0,0-5.26,7.45V460.41Z" transform="translate(-37.1 -458.41)"/><path class="cls-3" d="M186.55,473.57v15.8h-5.27v-2a7.87,7.87,0,0,0,0-11.76v-2Z" transform="translate(-37.1 -458.41)"/><path class="cls-2" d="M181.28,475.59a7.87,7.87,0,0,1,0,11.76Z" transform="translate(-37.1 -458.41)"/><path class="cls-4" d="M181.28,475.59v11.76a7.89,7.89,0,1,1,0-11.76Z" transform="translate(-37.1 -458.41)"/><rect class="cls-2" x="162.97" y="23.06" width="5.26" height="7.9"/><path class="cls-3" d="M205.33,481.47h-5.26a2.64,2.64,0,0,0-5.27,0V474a7.9,7.9,0,0,1,10.53,7.45Z" transform="translate(-37.1 -458.41)"/><rect class="cls-4" x="152.44" y="23.06" width="5.26" height="7.9"/><path class="cls-2" d="M194.8,478.84v2.63h-5.26A7.91,7.91,0,0,1,194.8,474Z" transform="translate(-37.1 -458.41)"/><path class="cls-4" d="M194.8,473.57V474a7.91,7.91,0,0,0-5.26,7.45v-7.9Z" transform="translate(-37.1 -458.41)"/></svg>